# xmcd CD database file
#
# Track frame offsets:
#	150
#	24678
#	55705
#	84416
#	106970
#	129933
#	154440
#	185403
#
# Disc length: 2854 seconds
#
# Revision: 0
# Processed by: cddbd v1.5.1PL2 Copyright (c) Steve Scherf et al.
# Submitted via: CDex 1.50beta8
#
DISCID=5f0b2408
DTITLE=大嶋啓之 feat. 茶太 - ORBITAL MANEUVER phase two - anemotaxis
DYEAR=2006
DGENRE=Other
TTITLE0=anemotaxis
TTITLE1=風タチヌ
TTITLE2=amrita
TTITLE3=relative anemotaxis
TTITLE4=amrita sansara
TTITLE5=anemotaxis ( no vocal )
TTITLE6=風タチヌ ( no vocal)
TTITLE7=amrita ( no vocal )
EXTD=YEAR: 2006
EXTT0=
EXTT1=
EXTT2=
EXTT3=
EXTT4=
EXTT5=
EXTT6=
EXTT7=
PLAYORDER=
